#define 0-0_width 8
#define 0-0_height 8
static char 0-0_bits[] = {
  0x34, 0x76, 0xF7, 0xF7, 0xFF, 0xFF, 0x7E, 0x3C, };
