#define 0-1_width 8
#define 0-1_height 8
static char 0-1_bits[] = {
  0x3C, 0x6E, 0xEF, 0x0F, 0xFF, 0xFF, 0x7E, 0x3C, };
