#define 0-2_width 8
#define 0-2_height 8
static char 0-2_bits[] = {
  0x3C, 0x6E, 0xEF, 0xEF, 0xF7, 0xF7, 0x76, 0x34, };
