#define 0-3_width 8
#define 0-3_height 8
static char 0-3_bits[] = {
  0x3C, 0x76, 0xF7, 0xF0, 0xFF, 0xFF, 0x7E, 0x3C, };
