#define 1-0_width 8
#define 1-0_height 8
static char 1-0_bits[] = {
  0x34, 0x56, 0xE7, 0xF7, 0xFF, 0xFF, 0x7E, 0x3C, };
