#define 1-1_width 8
#define 1-1_height 8
static char 1-1_bits[] = {
  0x3C, 0x5E, 0xEF, 0xF7, 0x0F, 0xFF, 0x7E, 0x3C, };
