#define 1-3_width 8
#define 1-3_height 8
static char 1-3_bits[] = {
  0x3C, 0x5E, 0xEF, 0xF0, 0xFF, 0xFF, 0x7E, 0x3C, };
