#define 10-0_width 8
#define 10-0_height 8
static char 10-0_bits[] = {
  0x2C, 0x6E, 0xE9, 0xE7, 0xFF, 0xFF, 0x7E, 0x3C, };
