#define 10-1_width 8
#define 10-1_height 8
static char 10-1_bits[] = {
  0x3C, 0x7E, 0xF9, 0xF7, 0x0F, 0xFF, 0x7E, 0x3C, };
