#define 10-2_width 8
#define 10-2_height 8
static char 10-2_bits[] = {
  0x3C, 0x7E, 0xF9, 0xF7, 0xEF, 0xEF, 0x6E, 0x2C, };
