#define 10-3_width 8
#define 10-3_height 8
static char 10-3_bits[] = {
  0x3C, 0x7E, 0xF9, 0xF7, 0xF0, 0xFF, 0x7E, 0x3C, };
