#define 11-0_width 8
#define 11-0_height 8
static char 11-0_bits[] = {
  0x2C, 0x6A, 0xE7, 0xEF, 0xFF, 0xFF, 0x7E, 0x3C, };
