#define 11-1_width 8
#define 11-1_height 8
static char 11-1_bits[] = {
  0x3C, 0x7A, 0xF7, 0x0F, 0xFF, 0xFF, 0x7E, 0x3C, };
