#define 11-3_width 8
#define 11-3_height 8
static char 11-3_bits[] = {
  0x3C, 0x7A, 0xF7, 0xEF, 0xF0, 0xFF, 0x7E, 0x3C, };
