#define 2-0_width 8
#define 2-0_height 8
static char 2-0_bits[] = {
  0x34, 0x76, 0x97, 0xE7, 0xFF, 0xFF, 0x7E, 0x3C, };
