#define 2-1_width 8
#define 2-1_height 8
static char 2-1_bits[] = {
  0x3C, 0x7E, 0x9F, 0xEF, 0x0F, 0xFF, 0x7E, 0x3C, };
