#define 2-2_width 8
#define 2-2_height 8
static char 2-2_bits[] = {
  0x3C, 0x7E, 0x9F, 0xEF, 0xF7, 0xF7, 0x76, 0x34, };
