#define 2-3_width 8
#define 2-3_height 8
static char 2-3_bits[] = {
  0x3C, 0x7E, 0x9F, 0xEF, 0xF0, 0xFF, 0x7E, 0x3C, };
