#define 3-0_width 8
#define 3-0_height 8
static char 3-0_bits[] = {
  0x34, 0x76, 0xF7, 0x87, 0xFF, 0xFF, 0x7E, 0x3C, };
