#define 3-1_width 8
#define 3-1_height 8
static char 3-1_bits[] = {
  0x3C, 0x7E, 0xFF, 0xFF, 0x07, 0xFF, 0x7E, 0x3C, };
