#define 3-2_width 8
#define 3-2_height 8
static char 3-2_bits[] = {
  0x3C, 0x7E, 0xFF, 0xFF, 0x87, 0xF7, 0x76, 0x34, };
