#define 3-3_width 8
#define 3-3_height 8
static char 3-3_bits[] = {
  0x3C, 0x7E, 0xFF, 0xF0, 0x8F, 0xFF, 0x7E, 0x3C, };
