#define 4-0_width 8
#define 4-0_height 8
static char 4-0_bits[] = {
  0x34, 0x76, 0xF7, 0xF7, 0xEF, 0x9F, 0x7E, 0x3C, };
