#define 4-1_width 8
#define 4-1_height 8
static char 4-1_bits[] = {
  0x3C, 0x7E, 0xFF, 0x0F, 0xEF, 0x9F, 0x7E, 0x3C, };
