#define 4-2_width 8
#define 4-2_height 8
static char 4-2_bits[] = {
  0x3C, 0x7E, 0xFF, 0xFF, 0xE7, 0x97, 0x76, 0x34, };
