#define 5-0_width 8
#define 5-0_height 8
static char 5-0_bits[] = {
  0x2C, 0x6E, 0xEF, 0xEF, 0xF7, 0xEF, 0x5E, 0x3C, };
