#define 5-1_width 8
#define 5-1_height 8
static char 5-1_bits[] = {
  0x3C, 0x7E, 0xFF, 0x0F, 0xF7, 0xEF, 0x5E, 0x3C, };
