#define 5-2_width 8
#define 5-2_height 8
static char 5-2_bits[] = {
  0x3C, 0x7E, 0xFF, 0xFF, 0xF7, 0xE7, 0x56, 0x34, };
