#define 5-3_width 8
#define 5-3_height 8
static char 5-3_bits[] = {
  0x3C, 0x7E, 0xFF, 0xFF, 0xF0, 0xEF, 0x5E, 0x3C, };
