#define 6-0_width 8
#define 6-0_height 8
static char 6-0_bits[] = {
  0x2C, 0x6E, 0xEF, 0xEF, 0xF7, 0xF7, 0x76, 0x3C, };
