#define 6-1_width 8
#define 6-1_height 8
static char 6-1_bits[] = {
  0x3C, 0x7E, 0xFF, 0x0F, 0xF7, 0xF7, 0x76, 0x3C, };
