#define 6-3_width 8
#define 6-3_height 8
static char 6-3_bits[] = {
  0x3C, 0x7E, 0xFF, 0xF0, 0xEF, 0xEF, 0x6E, 0x3C, };
