#define 7-0_width 8
#define 7-0_height 8
static char 7-0_bits[] = {
  0x34, 0x76, 0xF7, 0xF7, 0xEF, 0xF7, 0x7A, 0x3C, };
