#define 7-1_width 8
#define 7-1_height 8
static char 7-1_bits[] = {
  0x3C, 0x7E, 0xFF, 0x0F, 0xEF, 0xF7, 0x7A, 0x3C, };
