#define 7-2_width 8
#define 7-2_height 8
static char 7-2_bits[] = {
  0x3C, 0x7E, 0xFF, 0xFF, 0xEF, 0xE7, 0x6A, 0x2C, };
