#define 7-3_width 8
#define 7-3_height 8
static char 7-3_bits[] = {
  0x3C, 0x7E, 0xFF, 0xF0, 0xEF, 0xF7, 0x7A, 0x3C, };
