#define 8-0_width 8
#define 8-0_height 8
static char 8-0_bits[] = {
  0x2C, 0x6E, 0xEF, 0xEF, 0xF7, 0xF9, 0x7E, 0x3C, };
