#define 8-2_width 8
#define 8-2_height 8
static char 8-2_bits[] = {
  0x3C, 0x7E, 0xFF, 0xFF, 0xE7, 0xE9, 0x6E, 0x2C, };
