#define 8-3_width 8
#define 8-3_height 8
static char 8-3_bits[] = {
  0x3C, 0x7E, 0xFF, 0xF0, 0xF7, 0xF9, 0x7E, 0x3C, };
