#define 9-0_width 8
#define 9-0_height 8
static char 9-0_bits[] = {
  0x2C, 0x6E, 0xEF, 0xE1, 0xFF, 0xFF, 0x7E, 0x3C, };
