#define 9-1_width 8
#define 9-1_height 8
static char 9-1_bits[] = {
  0x3C, 0x7E, 0xFF, 0x0F, 0xF1, 0xFF, 0x7E, 0x3C, };
