#define 9-2_width 8
#define 9-2_height 8
static char 9-2_bits[] = {
  0x3C, 0x7E, 0xFF, 0xFF, 0xE1, 0xEF, 0x6E, 0x2C, };
