#define 9-3_width 8
#define 9-3_height 8
static char 9-3_bits[] = {
  0x3C, 0x7E, 0xFF, 0xFF, 0xE0, 0xFF, 0x7E, 0x3C, };
